<svg width="1438" height="566" viewBox="0 0 1438 566" fill="none" xmlns="http://www.w3.org/2000/svg">
<path d="M228.225 236.4C219.692 245.733 205.958 253.333 187.025 259.2C168.358 265.067 149.692 268 131.025 268C93.9583 268 62.8917 256.133 37.825 232.4C12.7583 208.4 0.225 177.067 0.225 138.4C0.225 118.133 4.49167 97.3333 13.025 76C21.5583 54.6667 35.5583 36.6667 55.025 22C74.4917 7.33332 100.625 -1.04904e-05 133.425 -1.04904e-05C155.558 -1.04904e-05 174.625 3.33332 190.625 9.99998C206.625 16.4 218.758 23.4667 227.025 31.2L233.425 91.6L189.825 95.6L184.225 61.2C177.292 56.6666 168.892 53.2 159.025 50.8C149.158 48.4 139.825 47.2 131.025 47.2C108.625 47.2 90.7583 54.6666 77.425 69.6C64.3583 84.5333 57.825 106.267 57.825 134.8C57.825 164.933 65.025 186.8 79.425 200.4C93.825 214 112.225 220.8 134.625 220.8C155.692 220.8 172.225 217.2 184.225 210L189.825 171.2L233.425 175.2L228.225 236.4ZM481.247 174C481.247 202.533 471.914 225.333 453.247 242.4C434.58 259.467 410.847 268 382.047 268C354.314 268 331.647 260 314.047 244C296.714 227.733 288.047 205.067 288.047 176C288.047 149.6 296.047 126.933 312.047 108C328.047 89.0667 352.314 79.6 384.847 79.6C417.38 79.6 441.514 89.0667 457.247 108C473.247 126.667 481.247 148.667 481.247 174ZM428.047 172.4C428.047 154 423.78 140.533 415.247 132C406.714 123.467 396.314 119.2 384.047 119.2C370.714 119.2 360.18 124 352.447 133.6C344.98 142.933 341.247 156.133 341.247 173.2C341.247 188.667 344.714 201.733 351.647 212.4C358.847 223.067 369.514 228.4 383.647 228.4C396.98 228.4 407.647 223.467 415.647 213.6C423.914 203.467 428.047 189.733 428.047 172.4ZM741.022 169.6C741.022 196.267 733.955 219.333 719.822 238.8C705.955 258.267 685.422 268 658.222 268C632.889 268 614.489 259.067 603.022 241.2V309.2H635.022V349.2H527.422V309.2H551.422V122.4H525.422V83.6H603.022V118C607.822 107.6 615.022 98.6667 624.622 91.2C634.222 83.7333 647.289 80 663.822 80C686.755 80 705.289 87.8667 719.422 103.6C733.822 119.333 741.022 141.333 741.022 169.6ZM687.422 174.8C687.422 157.2 683.422 143.867 675.422 134.8C667.689 125.467 657.689 120.8 645.422 120.8C632.089 120.8 621.822 125.733 614.622 135.6C607.689 145.467 603.955 158 603.422 173.2L603.022 179.6C603.022 194.267 606.889 205.867 614.622 214.4C622.355 222.933 632.622 227.2 645.422 227.2C657.689 227.2 667.689 222.933 675.422 214.4C683.422 205.867 687.422 192.667 687.422 174.8ZM1001.54 169.6C1001.54 196.267 994.471 219.333 980.338 238.8C966.471 258.267 945.938 268 918.738 268C893.404 268 875.004 259.067 863.538 241.2V309.2H895.538V349.2H787.938V309.2H811.938V122.4H785.938V83.6H863.538V118C868.338 107.6 875.538 98.6667 885.138 91.2C894.738 83.7333 907.804 80 924.338 80C947.271 80 965.804 87.8667 979.938 103.6C994.338 119.333 1001.54 141.333 1001.54 169.6ZM947.938 174.8C947.938 157.2 943.938 143.867 935.938 134.8C928.204 125.467 918.204 120.8 905.938 120.8C892.604 120.8 882.338 125.733 875.138 135.6C868.204 145.467 864.471 158 863.938 173.2L863.538 179.6C863.538 194.267 867.404 205.867 875.138 214.4C882.871 222.933 893.138 227.2 905.938 227.2C918.204 227.2 928.204 222.933 935.938 214.4C943.938 205.867 947.938 192.667 947.938 174.8ZM1227.65 207.2C1226.32 223.2 1218.45 237.333 1204.05 249.6C1189.65 261.867 1169.52 268 1143.65 268C1116.72 268 1094.45 260.4 1076.85 245.2C1059.52 230 1050.85 207.333 1050.85 177.2C1050.85 149.467 1058.72 126.4 1074.45 108C1090.45 89.3333 1112.72 80 1141.25 80C1166.32 80 1186.59 87.2 1202.05 101.6C1217.79 116 1225.79 134.933 1226.05 158.4C1226.05 167.2 1225.12 175.867 1223.25 184.4H1104.85C1107.79 212.933 1121.92 227.2 1147.25 227.2C1161.12 227.2 1170.45 223.867 1175.25 217.2C1180.32 210.533 1183.39 204.533 1184.45 199.2L1227.65 207.2ZM1172.85 154.4C1173.92 145.333 1171.92 136.8 1166.85 128.8C1162.05 120.8 1153.52 116.8 1141.25 116.8C1130.59 116.8 1122.32 120.267 1116.45 127.2C1110.59 134.133 1106.85 143.2 1105.25 154.4H1172.85ZM1393.41 81.2C1398.48 81.2 1404.08 82 1410.21 83.6C1416.61 84.9333 1422.88 87.4667 1429.01 91.2L1437.01 154.4L1397.81 158.8L1391.01 128C1385.68 124.8 1381.01 123.2 1377.01 123.2C1371.15 123.2 1365.95 125.467 1361.41 130C1357.15 134.533 1355.01 141.2 1355.01 150V225.2H1387.01V264H1279.41V225.2H1303.41V122.8H1277.41V83.6H1351.01V118C1353.95 107.6 1358.61 98.9333 1365.01 92C1371.68 84.8 1381.15 81.2 1393.41 81.2ZM136.363 473.8C136.363 487.4 132.229 497.8 123.963 505C115.696 512.067 105.163 515.6 92.3625 515.6H66.9625V551.2H89.3625V564H35.9625V551.2H52.3625V446.8H35.9625V434H91.1625C107.296 434 118.829 437.933 125.763 445.8C132.829 453.667 136.363 463 136.363 473.8ZM120.763 474.2C120.763 465.8 118.296 459.133 113.363 454.2C108.429 449.267 100.629 446.8 89.9625 446.8H66.9625V502.8H90.5625C110.696 502.8 120.763 493.267 120.763 474.2ZM252.914 538.4C251.714 546 247.914 552.533 241.514 558C235.114 563.333 226.447 566 215.514 566C202.981 566 192.847 562.067 185.114 554.2C177.381 546.333 173.514 535.2 173.514 520.8C173.514 506.933 177.181 495.533 184.514 486.6C191.847 477.667 201.781 473.2 214.314 473.2C226.581 473.2 235.914 477.067 242.314 484.8C248.714 492.533 251.981 501.667 252.114 512.2C252.114 515.667 251.714 519.2 250.914 522.8H188.314C189.114 543.6 198.514 554 216.514 554C223.581 554 229.114 552.333 233.114 549C237.114 545.667 239.781 541.267 241.114 535.8L252.914 538.4ZM237.314 512.4C237.981 505.733 236.381 499.467 232.514 493.6C228.781 487.733 222.581 484.8 213.914 484.8C205.647 484.8 199.581 487.533 195.714 493C191.847 498.467 189.447 504.933 188.514 512.4H237.314ZM367.659 538.2C367.659 546.867 363.993 553.667 356.659 558.6C349.459 563.533 340.526 566 329.859 566C323.593 566 317.326 565.2 311.059 563.6C304.926 561.867 299.926 559.733 296.059 557.2L298.859 537L310.059 538.2L309.459 550C315.593 552.933 322.193 554.4 329.259 554.4C335.526 554.4 341.059 553.2 345.859 550.8C350.793 548.267 353.259 544.467 353.259 539.4C353.259 534.467 351.393 531 347.659 529C343.926 527 339.259 525.533 333.659 524.6C328.193 523.667 322.659 522.533 317.059 521.2C311.459 519.867 306.793 517.6 303.059 514.4C299.326 511.067 297.459 505.933 297.459 499C297.459 489.533 300.926 482.867 307.859 479C314.793 475.133 322.326 473.2 330.459 473.2C336.593 473.2 342.326 474 347.659 475.6C353.126 477.2 357.726 479.133 361.459 481.4L363.659 502.2L352.059 503.6L349.859 489.2C344.259 486.267 338.193 484.8 331.659 484.8C326.059 484.8 321.459 485.867 317.859 488C314.259 490.133 312.459 493.467 312.459 498C312.459 502.667 314.326 506 318.059 508C321.793 509.867 326.393 511.267 331.859 512.2C337.326 513 342.793 514.067 348.259 515.4C353.726 516.733 358.326 519.133 362.059 522.6C365.793 525.933 367.659 531.133 367.659 538.2ZM476.755 540C474.355 557.333 464.955 566 448.555 566C439.621 566 432.755 563.467 427.955 558.4C423.288 553.333 420.955 546.467 420.955 537.8V486.2H406.555V475H420.955V446.4H434.955V475H469.755V486.2H434.955V536C434.955 541.333 436.088 545.667 438.355 549C440.755 552.2 444.621 553.8 449.955 553.8C453.421 553.8 456.621 552.733 459.555 550.6C462.621 548.467 464.821 543.8 466.155 536.6L476.755 540ZM694.086 554C683.686 562 669.219 566 650.686 566C631.753 566 616.419 559.733 604.686 547.2C592.953 534.533 587.086 518.733 587.086 499.8C587.086 487.8 589.619 476.667 594.686 466.4C599.753 456 606.886 447.667 616.086 441.4C625.286 435.133 636.219 432 648.886 432C659.686 432 668.686 433.4 675.886 436.2C683.219 439 689.553 442.667 694.886 447.2L698.486 472.2L685.886 473.4L682.286 454.4C678.019 451.6 673.419 449.4 668.486 447.8C663.553 446.067 657.419 445.2 650.086 445.2C635.819 445.2 624.286 450.267 615.486 460.4C606.819 470.533 602.486 483.467 602.486 499.2C602.486 515.333 606.953 528.333 615.886 538.2C624.953 547.933 637.219 552.8 652.686 552.8C664.019 552.8 673.553 550.867 681.286 547L685.086 527.8L697.486 529L694.086 554ZM831.583 519.4C831.583 532.867 827.583 544 819.583 552.8C811.583 561.6 800.716 566 786.983 566C773.516 566 762.916 561.733 755.183 553.2C747.583 544.667 743.783 533.667 743.783 520.2C743.783 507.267 747.516 496.2 754.983 487C762.449 477.667 773.383 473 787.783 473C802.316 473 813.249 477.6 820.583 486.8C827.916 495.867 831.583 506.733 831.583 519.4ZM816.783 519.2C816.783 509.067 814.183 500.867 808.983 494.6C803.916 488.2 796.716 485 787.383 485C778.049 485 770.849 488.267 765.783 494.8C760.849 501.333 758.383 509.533 758.383 519.4C758.383 529.133 760.849 537.333 765.783 544C770.716 550.667 777.916 554 787.383 554C796.849 554 804.116 550.733 809.183 544.2C814.249 537.533 816.783 529.2 816.783 519.2ZM979.722 564H934.722V552.6H950.122V511.2C950.122 501.6 948.189 494.867 944.322 491C940.455 487 935.522 485 929.522 485C921.522 485 915.055 487.667 910.122 493C905.322 498.2 902.789 504.2 902.522 511V552.6H918.122V564H872.922V552.6H888.522V486.4H872.522V475H902.522V490.8C908.922 479.067 919.322 473.2 933.722 473.2C942.389 473.2 949.655 475.867 955.522 481.2C961.389 486.533 964.322 495.133 964.322 507V552.6H979.722V564ZM1082.77 540C1080.37 557.333 1070.97 566 1054.57 566C1045.64 566 1038.77 563.467 1033.97 558.4C1029.3 553.333 1026.97 546.467 1026.97 537.8V486.2H1012.57V475H1026.97V446.4H1040.97V475H1075.77V486.2H1040.97V536C1040.97 541.333 1042.1 545.667 1044.37 549C1046.77 552.2 1050.64 553.8 1055.97 553.8C1059.44 553.8 1062.64 552.733 1065.57 550.6C1068.64 548.467 1070.84 543.8 1072.17 536.6L1082.77 540ZM1168.59 473.4C1174.99 473.4 1180.06 474.933 1183.79 478L1187.19 500.4L1175.79 501.8L1172.39 486.6C1170.12 485.8 1167.86 485.4 1165.59 485.4C1160.39 485.4 1156.06 487.6 1152.59 492C1149.12 496.267 1147.39 501.867 1147.39 508.8V552.6H1167.99V564H1117.79V552.6H1133.39V486.4H1117.39V475H1146.59V491C1148.32 486.067 1151.12 481.933 1154.99 478.6C1158.99 475.133 1163.52 473.4 1168.59 473.4ZM1318.97 519.4C1318.97 532.867 1314.97 544 1306.97 552.8C1298.97 561.6 1288.11 566 1274.37 566C1260.91 566 1250.31 561.733 1242.57 553.2C1234.97 544.667 1231.17 533.667 1231.17 520.2C1231.17 507.267 1234.91 496.2 1242.37 487C1249.84 477.667 1260.77 473 1275.17 473C1289.71 473 1300.64 477.6 1307.97 486.8C1315.31 495.867 1318.97 506.733 1318.97 519.4ZM1304.17 519.2C1304.17 509.067 1301.57 500.867 1296.37 494.6C1291.31 488.2 1284.11 485 1274.77 485C1265.44 485 1258.24 488.267 1253.17 494.8C1248.24 501.333 1245.77 509.533 1245.77 519.4C1245.77 529.133 1248.24 537.333 1253.17 544C1258.11 550.667 1265.31 554 1274.77 554C1284.24 554 1291.51 550.733 1296.57 544.2C1301.64 537.533 1304.17 529.2 1304.17 519.2ZM1403.51 564H1358.31V552.6H1373.91V437.8H1358.11V426.4H1387.91V552.6H1403.51V564Z" fill="#CB4948"/>
</svg>
