<svg width="14" height="14" viewBox="0 0 14 14" fill="none" xmlns="http://www.w3.org/2000/svg">
<path d="M2.1 13.3C1.7134 13.6866 1.0866 13.6866 0.7 13.3V13.3C0.313401 12.9134 0.313401 12.2866 0.7 11.9L4.89289 7.70711C5.28342 7.31658 5.28342 6.68342 4.89289 6.29289L0.7 2.1C0.3134 1.7134 0.313401 1.0866 0.7 0.7V0.7C1.0866 0.313401 1.7134 0.313401 2.1 0.7L6.29289 4.89289C6.68342 5.28342 7.31658 5.28342 7.70711 4.89289L11.9 0.7C12.2866 0.3134 12.9134 0.313401 13.3 0.7V0.7C13.6866 1.0866 13.6866 1.7134 13.3 2.1L9.10711 6.29289C8.71658 6.68342 8.71658 7.31658 9.10711 7.70711L13.3 11.9C13.6866 12.2866 13.6866 12.9134 13.3 13.3V13.3C12.9134 13.6866 12.2866 13.6866 11.9 13.3L7.70711 9.10711C7.31658 8.71658 6.68342 8.71658 6.29289 9.10711L2.1 13.3Z" fill="white"/>
</svg>
